<svg width="19" height="19" viewBox="0 0 19 19" fill="none" xmlns="http://www.w3.org/2000/svg">
    <g clip-path="url(#a)">
        <path d="M17.111 14.133a9.786 9.786 0 0 1-.967 1.74c-.51.726-.926 1.228-1.247 1.507-.498.457-1.03.692-1.602.705-.41 0-.904-.116-1.48-.353-.577-.236-1.108-.352-1.593-.352-.51 0-1.055.116-1.639.352-.584.237-1.055.36-1.415.372-.548.023-1.094-.218-1.639-.724-.348-.304-.782-.824-1.304-1.56-.559-.787-1.018-1.7-1.378-2.74-.386-1.122-.58-2.21-.58-3.263 0-1.206.261-2.247.783-3.119.41-.7.957-1.253 1.64-1.658a4.41 4.41 0 0 1 2.216-.625c.435 0 1.006.134 1.714.399.707.265 1.161.4 1.36.4.149 0 .653-.158 1.508-.472.808-.29 1.49-.41 2.05-.363 1.514.122 2.651.719 3.408 1.794-1.354.82-2.024 1.97-2.011 3.445.012 1.148.429 2.104 1.248 2.863.37.352.785.624 1.246.818-.1.29-.205.568-.317.834zM13.639.466c0 .9-.329 1.74-.984 2.518-.791.925-1.748 1.46-2.786 1.375a2.803 2.803 0 0 1-.02-.34c0-.865.376-1.79 1.044-2.546a4.022 4.022 0 0 1 1.272-.955c.513-.25.999-.389 1.455-.412.014.12.02.24.02.36z" fill="#fff"/>
    </g>
    <defs>
        <clipPath id="a">
            <path fill="#fff" transform="translate(.768 .105)" d="M0 0h18v18H0z"/>
        </clipPath>
    </defs>
</svg>
