<svg width="17" height="17" viewBox="0 0 17 17" fill="none" xmlns="http://www.w3.org/2000/svg">
    <g clip-path="url(#a)">
        <path d="M16.834 8.696c0-.578-.047-1.159-.146-1.727H8.67v3.273h4.591a3.935 3.935 0 0 1-1.699 2.583v2.124h2.74c1.608-1.48 2.532-3.667 2.532-6.253z" fill="#4285F4"/>
        <path d="M8.67 17c2.293 0 4.226-.752 5.634-2.051l-2.739-2.124c-.762.518-1.746.812-2.892.812-2.217 0-4.098-1.496-4.772-3.508H1.074v2.19A8.501 8.501 0 0 0 8.67 17z" fill="#34A853"/>
        <path d="M3.898 10.13a5.091 5.091 0 0 1 0-3.255v-2.19H1.074a8.507 8.507 0 0 0 0 7.634l2.824-2.19z" fill="#FBBC04"/>
        <path d="M8.67 3.364a4.619 4.619 0 0 1 3.26 1.275l2.428-2.427A8.17 8.17 0 0 0 8.67 0a8.498 8.498 0 0 0-7.596 4.684l2.824 2.19c.671-2.015 2.554-3.51 4.772-3.51z" fill="#EA4335"/>
    </g>
    <defs>
        <clipPath id="a">
            <path fill="#fff" d="M0 0h17v17H0z"/>
        </clipPath>
    </defs>
</svg>
