<svg width="24" height="21" viewBox="0 0 24 21" fill="none" xmlns="http://www.w3.org/2000/svg">
    <path fill-rule="evenodd" clip-rule="evenodd" d="M5.024 20.553a.97.97 0 0 1-1.371 0C-.881 16.02-.91 8.684 3.606 4.17 8.12-.347 15.456-.318 19.99 4.216c1.301 1.3 2.831 3.642 3.253 6.517.43 2.929-.305 6.33-3.42 9.616a.97.97 0 0 1-1.407-1.334c2.71-2.86 3.252-5.667 2.91-8-.351-2.387-1.641-4.363-2.707-5.428-3.784-3.785-9.892-3.798-13.643-.048-3.75 3.75-3.737 9.859.048 13.643a.97.97 0 0 1 0 1.371z" fill="url(#a)"/>
    <defs>
        <linearGradient id="a" x1="22.704" y1="8.658" x2="1.933" y2="8.465" gradientUnits="userSpaceOnUse">
            <stop stop-color="#00229B"/>
            <stop offset="1" stop-color="#02B0D7" stop-opacity="0"/>
        </linearGradient>
    </defs>
</svg>
