<svg width="38" height="34" viewBox="0 0 38 34" fill="none" xmlns="http://www.w3.org/2000/svg">
    <path d="M23.542 8.884c0-2.308-1.819-4.195-4.082-4.195s-4.082 1.887-4.082 4.195c0 2.307 1.819 4.195 4.082 4.195s4.082-1.888 4.082-4.195zm-6.547 0c0-1.385 1.091-2.518 2.465-2.518 1.374 0 2.465 1.133 2.465 2.518 0 1.384-1.09 2.517-2.465 2.517-1.374 0-2.465-1.133-2.465-2.517zm2.263 14.599.566-.588c6.668-6.837 7.194-11.83 7.194-13.172v-.84c0-4.404-3.476-7.97-7.76-7.97s-7.76 3.566-7.76 7.97v.84c0 1.342.526 6.334 7.194 13.172l.566.588zm-6.143-14.6c0-3.481 2.748-6.292 6.143-6.292 3.395 0 6.143 2.81 6.143 6.293v.839c0 .839-.323 5.16-6.143 11.368-5.82-6.209-6.143-10.571-6.143-11.368v-.84zm24.249 19.172-8.932 5.58-9.053-3.105a.88.88 0 0 1-.202-.126c-.08.042-.121.084-.202.126l-9.053 3.105-8.932-5.58L5.8 10.058l4.97 3.105c.405.251.526.755.284 1.132a.863.863 0 0 1-1.132.294L6.81 12.66 2.89 27.258l6.668 4.195 1.536-13.844a.824.824 0 0 1 .89-.755c.444.042.767.462.727.923l-1.536 13.634 7.274-2.475V26.04c0-.461.364-.839.809-.839.444 0 .808.378.808.84v2.936l7.275 2.517-1.536-13.718c-.04-.462.283-.881.727-.923a.824.824 0 0 1 .89.755l1.535 13.718 6.507-4.07-3.92-14.598-3.112 1.93c-.405.251-.89.125-1.132-.294-.242-.378-.121-.923.283-1.133l4.971-3.104 4.81 17.997z" fill="#fff"/>
</svg>
