<svg width="34" height="34" viewBox="0 0 34 34" fill="none" xmlns="http://www.w3.org/2000/svg">
<path d="M9.13334 29.4961C10.6573 29.4961 11.8927 28.2809 11.8927 26.782C11.8927 25.283 10.6573 24.0679 9.13334 24.0679C7.60941 24.0679 6.37402 25.283 6.37402 26.782C6.37402 28.2809 7.60941 29.4961 9.13334 29.4961Z" stroke="white" stroke-width="2.5" stroke-linecap="round" stroke-linejoin="round"/>
<path d="M25.688 10.4975C27.212 10.4975 28.4473 9.28236 28.4473 7.78342C28.4473 6.28447 27.212 5.06934 25.688 5.06934C24.1641 5.06934 22.9287 6.28447 22.9287 7.78342C22.9287 9.28236 24.1641 10.4975 25.688 10.4975Z" stroke="white" stroke-width="2.5" stroke-linecap="round" stroke-linejoin="round"/>
<path d="M17.4096 26.7819H23.618C24.8987 26.7819 26.1269 26.2815 27.0325 25.3908C27.9381 24.5 28.4468 23.2919 28.4468 22.0322C28.4468 20.7726 27.9381 19.5645 27.0325 18.6737C26.1269 17.783 24.8987 17.2826 23.618 17.2826H12.5808C11.3001 17.2826 10.0719 16.7822 9.16628 15.8915C8.2607 15.0007 7.75195 13.7926 7.75195 12.533C7.75195 11.2733 8.2607 10.0652 9.16628 9.17446C10.0719 8.28373 11.3001 7.78333 12.5808 7.78333H17.4096" stroke="white" stroke-width="2.5" stroke-linecap="round" stroke-linejoin="round"/>
</svg>
