<svg width="23" height="22" viewBox="0 0 23 22" fill="none" xmlns="http://www.w3.org/2000/svg">
    <path d="M11.436 20.167a1.833 1.833 0 0 1-1.833-1.834h3.666c0 1.013-.82 1.834-1.833 1.834zm7.333-2.75H4.103v-1.834l1.833-.916V9.625c0-3.173 1.302-5.231 3.667-5.793V1.834h3.666v1.998c2.364.56 3.667 2.618 3.667 5.793v5.042l1.833.917v1.833zM11.436 5.27a3.3 3.3 0 0 0-2.865 1.33 5.218 5.218 0 0 0-.802 3.024v5.959h7.333V9.625A5.219 5.219 0 0 0 14.3 6.6a3.3 3.3 0 0 0-2.864-1.329z" fill="#45484E"/>
</svg>
