<svg width="17" height="16" viewBox="0 0 17 16" fill="none" xmlns="http://www.w3.org/2000/svg">
    <path d="M15.327 6.71a.627.627 0 0 0-.22-.288.693.693 0 0 0-.353-.13l-3.793-.519-1.7-3.231a.64.64 0 0 0-.246-.257.7.7 0 0 0-.709 0 .64.64 0 0 0-.246.257l-1.7 3.225-3.793.525a.689.689 0 0 0-.335.14.625.625 0 0 0-.205.285.588.588 0 0 0-.01.334c.03.11.091.21.177.291l2.753 2.5-.667 3.55a.589.589 0 0 0 .036.35c.048.11.128.206.231.275a.704.704 0 0 0 .7.044l3.413-1.669 3.4 1.675a.698.698 0 0 0 .7-.044.633.633 0 0 0 .231-.276.588.588 0 0 0 .036-.349l-.666-3.55 2.753-2.5a.624.624 0 0 0 .205-.29.587.587 0 0 0 .008-.347zm-4.1 2.5a.62.62 0 0 0-.17.256.588.588 0 0 0-.023.301l.48 2.619-2.507-1.25a.702.702 0 0 0-.627 0l-2.506 1.25.48-2.619a.588.588 0 0 0-.023-.3.62.62 0 0 0-.17-.256l-2-1.875 2.806-.381a.692.692 0 0 0 .3-.113c.087-.06.159-.14.207-.231L8.66 4.23l1.254 2.387c.048.092.12.171.207.231.089.06.191.099.3.113l2.806.381-2 1.869z" fill="#000"/>
</svg>
