<svg width="28" height="43" viewBox="0 0 28 43" fill="none" xmlns="http://www.w3.org/2000/svg">
    <circle cx="13.818" cy="15.849" r="9.347" fill="#C4C4C4"/>
    <circle cx="9.855" cy="11.887" r="3.15" fill="#7B7B7B"/>
    <circle cx="17.882" cy="11.988" r="3.048" fill="#7B7B7B"/>
    <circle cx="19.913" cy="18.084" r="2.235" fill="#7B7B7B"/>
    <circle cx="7.722" cy="18.084" r="2.235" fill="#7B7B7B"/>
    <circle cx="13.818" cy="21.133" r="3.048" fill="#7B7B7B"/>
    <rect x="3.143" y="30.777" width="21.352" height="10.786" rx="5.393" fill="#C4C4C4" stroke="#000"/>
    <circle cx="18.085" cy="35.966" r="3.251" fill="#7B7B7B"/>
    <circle cx="9.956" cy="35.966" r="3.251" fill="#7B7B7B"/>
    <path fill-rule="evenodd" clip-rule="evenodd" d="M10.363 0h6.91v2.468C23.231 4.002 27.634 9.41 27.634 15.85c0 6.438-4.403 11.848-10.363 13.382v2.06h-6.909v-2.06C4.403 27.698 0 22.288 0 15.85 0 9.41 4.404 4 10.363 2.468V0zm6.732 28.245H10.54C5.048 26.797 1 21.796 1 15.85 1 8.986 6.395 3.382 13.176 3.048h1.283c6.781.334 12.176 5.938 12.176 12.802 0 5.946-4.049 10.947-9.54 12.395z" fill="#000"/>
</svg>
