<svg width="28" height="24" viewBox="0 0 28 24" fill="none" xmlns="http://www.w3.org/2000/svg">
    <path d="M27.309 9.443c0 7.355-5.963 13.318-13.318 13.318C6.636 22.76.674 16.798.674 9.443c0-1.84.372-3.24 1.015-4.313.64-1.07 1.57-1.85 2.75-2.42C6.823 1.56 10.171 1.3 13.99 1.3c3.82 0 7.168.26 9.554 1.41 1.178.57 2.109 1.35 2.75 2.42.641 1.073 1.014 2.473 1.014 4.313z" stroke="#000"/>
    <circle cx="6.652" cy="8.289" r="3.904" fill="#7B7B7B"/>
    <circle cx="21.32" cy="8.127" r="3.904" fill="#7B7B7B"/>
    <path fill-rule="evenodd" clip-rule="evenodd" d="M5.244 14.57a6.796 6.796 0 0 0 6.181-9.624c-.337-.736.073-1.708.882-1.736a52.833 52.833 0 0 1 3.163-.01c.781.021 1.21.926.929 1.654a6.796 6.796 0 0 0 6.343 9.242c.61 0 1.102.606.806 1.14a10.902 10.902 0 0 1-1.887 2.482c-.373.367-.965.326-1.363-.015-1.752-1.5-4.07-2.413-6.611-2.413-2.37 0-4.546.794-6.25 2.118-.412.32-1.005.333-1.36-.05a10.898 10.898 0 0 1-1.416-1.907c-.235-.402.117-.88.583-.88z" fill="#C4C4C4"/>
    <circle cx="9.91" cy="18.086" r=".822" fill="#7B7B7B"/>
    <circle cx="13.992" cy="17.195" r=".822" fill="#7B7B7B"/>
    <circle cx="18.074" cy="18.086" r=".822" fill="#7B7B7B"/>
    <circle cx="21.326" cy="8.127" r="1.158" fill="#404040"/>
    <circle cx="6.658" cy="8.289" r="1.158" fill="#404040"/>
    <path fill="#C4C4C4" d="M11.416 19.229h5.152v1.287h-5.152z"/>
</svg>
