<svg width="29" height="28" viewBox="0 0 29 28" fill="none" xmlns="http://www.w3.org/2000/svg">
    <mask id="9d76b8xsea" fill="#fff">
        <path fill-rule="evenodd" clip-rule="evenodd" d="M28.27 14.031c0 7.632-6.186 13.818-13.818 13.818-7.63 0-13.817-6.186-13.817-13.818 0-2.71.78-5.24 2.13-7.373a3.07 3.07 0 0 1 3.9-4.041A13.754 13.754 0 0 1 14.45.214c2.89 0 5.571.886 7.789 2.402a3.07 3.07 0 0 1 3.899 4.04 13.753 13.753 0 0 1 2.13 7.375z"/>
    </mask>
    <path d="m2.764 6.658.846.535.274-.435-.193-.477-.927.377zm3.9-4.041-.344.939.483.177.425-.29-.565-.826zm15.577 0-.565.825.425.29.482-.176-.342-.94zm3.898 4.04-.926-.377-.194.476.275.435.845-.535zM14.452 28.848c8.184 0 14.818-6.634 14.818-14.818h-2c0 7.08-5.739 12.818-12.818 12.818v2zM-.365 14.031c0 8.184 6.634 14.818 14.817 14.818v-2c-7.079 0-12.817-5.739-12.817-12.818h-2zm2.284-7.907A14.753 14.753 0 0 0-.365 14.03h2c0-2.516.724-4.86 1.975-6.838l-1.691-1.07zm1.772.157a2.062 2.062 0 0 1-.152-.78h-2c0 .541.106 1.06.299 1.534l1.853-.754zm-.152-.78a2.07 2.07 0 0 1 2.07-2.07v-2a4.07 4.07 0 0 0-4.07 4.07h2zm2.07-2.07c.252 0 .49.045.711.125l.687-1.879a4.065 4.065 0 0 0-1.397-.246v2zm8.843-4.217c-3.097 0-5.974.951-8.353 2.577l1.129 1.651a12.754 12.754 0 0 1 7.224-2.228v-2zm8.353 2.577a14.754 14.754 0 0 0-8.353-2.577v2c2.682 0 5.168.822 7.224 2.228l1.129-1.651zm.488-.36c-.488 0-.959.087-1.395.246l.685 1.879c.22-.08.46-.125.71-.125v-2zm4.07 4.07a4.07 4.07 0 0 0-4.07-4.07v2a2.07 2.07 0 0 1 2.07 2.07h2zm-.297 1.532c.192-.474.298-.992.298-1.531h-2c0 .277-.054.54-.151.778l1.853.753zm2.204 6.998c0-2.906-.838-5.62-2.285-7.909l-1.69 1.069a12.753 12.753 0 0 1 1.975 6.84h2z" fill="#000" mask="url(#9d76b8xsea)"/>
    <circle cx="7.715" cy="14.117" r="3.862" stroke="#000" stroke-width="2"/>
    <circle cx="20.678" cy="14.117" r="3.862" stroke="#000" stroke-width="2"/>
    <circle cx="14.452" cy="7.038" r="3.093" fill="#7B7B7B"/>
    <circle cx="14.452" cy="21.537" r="3.093" fill="#7B7B7B"/>
    <path fill="#C4C4C4" d="m13.215 4.556 3.59 3.948-1.117 1.016-3.59-3.948zM13.215 19.056l3.59 3.947-1.117 1.016-3.59-3.947z"/>
    <path fill="#C4C4C4" d="M16.86 5.663 13.12 9.47l-1.077-1.058 3.738-3.807zM16.86 20.163 13.12 23.97l-1.077-1.058 3.738-3.807z"/>
</svg>
