<svg width="29" height="32" viewBox="0 0 29 32" fill="none" xmlns="http://www.w3.org/2000/svg">
    <circle cx="14.722" cy="16.234" r="9.347" fill="#C4C4C4"/>
    <circle cx="10.761" cy="12.272" r="3.15" fill="#7B7B7B"/>
    <circle cx="18.788" cy="12.374" r="3.048" fill="#7B7B7B"/>
    <circle cx="20.819" cy="18.47" r="2.235" fill="#7B7B7B"/>
    <circle cx="8.626" cy="18.47" r="2.235" fill="#7B7B7B"/>
    <circle cx="14.724" cy="21.517" r="3.048" fill="#7B7B7B"/>
    <path fill-rule="evenodd" clip-rule="evenodd" d="M11.268.385h6.908v2.467c5.96 1.534 10.364 6.944 10.364 13.383 0 6.438-4.404 11.848-10.364 13.382v2.06h-6.908v-2.06C5.308 28.083.904 22.673.904 16.235c0-6.439 4.404-11.849 10.364-13.383V.385zm6.731 28.244h-6.554c-5.492-1.448-9.54-6.448-9.54-12.394C1.904 9.37 7.3 3.767 14.08 3.433h1.282c6.781.334 12.177 5.938 12.177 12.802 0 5.946-4.05 10.946-9.541 12.394z" fill="#000"/>
</svg>
