<svg width="25" height="23" viewBox="0 0 25 23" fill="none" xmlns="http://www.w3.org/2000/svg">
    <path d="M22.976 9.267a.961.961 0 0 0-.33-.443 1.025 1.025 0 0 0-.53-.199l-5.69-.795-2.55-4.955a.974.974 0 0 0-.369-.394 1.032 1.032 0 0 0-1.062 0 .973.973 0 0 0-.369.394L9.526 7.82l-5.69.805c-.185.025-.359.1-.502.215a.958.958 0 0 0-.308.437.92.92 0 0 0-.014.512.95.95 0 0 0 .264.446l4.13 3.833-1 5.444a.921.921 0 0 0 .054.535c.07.17.19.316.346.423a1.028 1.028 0 0 0 1.05.067l5.12-2.559 5.1 2.569c.14.075.299.115.46.115.212 0 .418-.063.59-.182a.966.966 0 0 0 .346-.424c.071-.17.09-.355.054-.535l-1-5.443 4.13-3.833a.957.957 0 0 0 .308-.445.92.92 0 0 0 .012-.533zm-6.15 3.833a.952.952 0 0 0-.256.392.919.919 0 0 0-.034.461l.72 4.016-3.76-1.917a1.035 1.035 0 0 0-.94 0l-3.76 1.917.72-4.016a.92.92 0 0 0-.034-.46.953.953 0 0 0-.256-.393l-3-2.875 4.21-.584c.162-.022.316-.081.449-.173a.97.97 0 0 0 .311-.354l1.78-3.652 1.88 3.661a.97.97 0 0 0 .312.355c.132.091.286.15.448.172l4.21.585-3 2.865z" fill="#000"/>
</svg>
